<?xml version="1.0" ?><svg viewBox="0 0 31.99983 27" xmlns="http://www.w3.org/2000/svg"><title/><g data-name="Layer 2" id="Layer_2"><g id="Interface-Solid"><path d="M18.45783,0A13.53082,13.53082,0,0,0,4.92713,13.29712l-.0025.01245v.03662c-.00061.05176-.00781.10205-.00781.15381,0,.01367.00738.02515.00781.03857v4.48975L2.16,15.09277A1.25042,1.25042,0,1,0,.33967,16.80762l4.9248,5.22949c.00458.00488.01117.00635.01581.011l.0279.02734c.00469.00464.00616.011.011.01538a1.20328,1.20328,0,0,0,.18605.11743,1.21223,1.21223,0,0,0,.17328.1167l.00927.00635c.0058.00244.01288.00146.01874.00391a1.20844,1.20844,0,0,0,.93744-.00025l.01855-.00439.00666-.0044a1.20765,1.20765,0,0,0,.16632-.1123,1.1717,1.1717,0,0,0,.19659-.124c.005-.00463.00647-.01123.01135-.01611l.02717-.02783c.00445-.00488.0108-.00611.01519-.01074l4.90821-5.2295a1.24979,1.24979,0,1,0-1.82227-1.71093L7.42463,18.02148v-4.675A11.03794,11.03794,0,1,1,18.45783,24.5a1.25,1.25,0,0,0,0,2.5,13.50007,13.50007,0,1,0,0-27Z" id="interface-solid-multimedia-refresh-button"/></g></g></svg>